Coordinates
version=1
nRows=17
nColumns=24
inDegrees=yes

Units are S.I. units (second, meters, Newtons, ...)
Angles are in degrees.

endheader
time	pelvis_tilt	pelvis_list	pelvis_rotation	pelvis_tx	pelvis_ty	pelvis_tz	hip_flexion_r	hip_adduction_r	hip_rotation_r	knee_angle_r	ankle_angle_r	subtalar_angle_r	mtp_angle_r	hip_flexion_l	hip_adduction_l	hip_rotation_l	knee_angle_l	ankle_angle_l	subtalar_angle_l	mtp_angle_l	lumbar_extension	lumbar_bending	lumbar_rotation
      0.85816667	     -2.89998188	     -1.96625002	     -0.56230832	     -0.42180170	      1.00696659	      0.34022091	     14.06239008	      4.98259593	      0.17194767	    -19.06062437	      8.86085333	     -8.19399923	      2.06000834	     16.29065398	     -2.51267120	     -3.29742379	    -68.87997218	     -7.59468403	     -9.45377889	      5.48438508	     -9.29436113	      9.86743508	     -0.22999649
      0.86233333	     -2.82999223	     -1.82180601	     -0.58645442	     -0.41690051	      1.00800401	      0.34060474	     13.48398820	      4.85638392	      0.23601207	    -18.66431067	      8.93064140	     -8.15447884	      2.06287573	     16.76970196	     -2.43284840	     -3.42914284	    -68.72380314	     -7.10574285	     -9.71573823	      5.39865271	     -9.42525170	      9.63667026	      0.02686655
      0.86650000	     -2.77034334	     -1.68459746	     -0.61823638	     -0.41202221	      1.00897200	      0.34098095	     12.92536010	      4.73687395	      0.29750712	    -18.28102126	      8.97973890	     -8.11223356	      2.06414329	     17.25337139	     -2.35951342	     -3.56313381	    -68.52856443	     -6.60239585	     -9.97548389	      5.34159642	     -9.55333169	      9.42746515	      0.22008807
      0.87066667	     -2.67339834	     -1.51810705	     -0.65888466	     -0.40711018	      1.00999395	      0.34136901	     12.31760815	      4.58701390	      0.37284646	    -17.88277891	      9.05340936	     -8.06700935	      2.06470786	     17.67082359	     -2.25489412	     -3.71193039	    -68.25199791	     -6.14148405	    -10.19432118	      5.27673959	     -9.71513162	      9.16779857	      0.46938642
      0.87483333	     -2.59816055	     -1.35697509	     -0.70740669	     -0.40217291	      1.01095301	      0.34175717	     11.72952735	      4.44231382	      0.45038119	    -17.47858508	      9.15156474	     -8.02200769	      2.06469181	     18.09722527	     -2.15895406	     -3.86892802	    -67.92276391	     -5.72008571	    -10.38752969	      5.18183281	     -9.83256281	      8.91118814	      0.79036312
      0.87900000	     -2.51564405	     -1.19100645	     -0.75449929	     -0.39726048	      1.01187848	      0.34212647	     11.14249244	      4.28835960	      0.51744283	    -17.08826524	      9.23056336	     -7.96536010	      2.06296784	     18.50712400	     -2.05187662	     -4.01856778	    -67.54809211	     -5.27969717	    -10.56725805	      5.08750497	     -9.97081789	      8.65825821	      1.03236742
      0.88316667	     -2.43056772	     -1.03188361	     -0.80426455	     -0.39234850	      1.01276915	      0.34249181	     10.55096395	      4.14100203	      0.58803194	    -16.69199376	      9.30363104	     -7.91378165	      2.05928747	     18.90120670	     -1.95226414	     -4.16749204	    -67.12484273	     -4.84028002	    -10.72029502	      4.99022590	    -10.10836398	      8.41272602	      1.27653153
      0.88733333	     -2.35298923	     -0.86180854	     -0.85449614	     -0.38745112	      1.01360745	      0.34284354	      9.97449946	      3.97934142	      0.65571863	    -16.30717567	      9.37984316	     -7.85698607	      2.05467930	     19.29220909	     -1.83470155	     -4.30953632	    -66.65084848	     -4.41596450	    -10.85042797	      4.90120925	    -10.24655942	      8.15578747	      1.49627548
      0.89150000	     -2.30523973	     -0.69397684	     -0.90593765	     -0.38254842	      1.01436049	      0.34317868	      9.43432693	      3.81765975	      0.72017242	    -15.93117155	      9.46112050	     -7.79276141	      2.04928132	     19.70251943	     -1.71519460	     -4.44445750	    -66.12925125	     -3.99466752	    -10.95723261	      4.81623162	    -10.34297748	      7.90986195	      1.71418884
      0.89566667	     -2.19911128	     -0.53925979	     -0.95804957	     -0.37762097	      1.01516320	      0.34352152	      8.82310753	      3.66786782	      0.77174694	    -15.53822305	      9.54097467	     -7.73735082	      2.04082461	     20.03094300	     -1.61644337	     -4.58916237	    -65.55379502	     -3.57608585	    -11.03747454	      4.71626605	    -10.49302408	      7.66398785	      1.95358232
      0.89983333	     -2.14482976	     -0.36825101	     -1.01065633	     -0.37272659	      1.01583700	      0.34382584	      8.28321055	      3.49743349	      0.82845877	    -15.17329303	      9.62510039	     -7.67372453	      2.03210194	     20.40555379	     -1.48523082	     -4.71258420	    -64.93120787	     -3.16524062	    -11.09058227	      4.62304055	    -10.59693779	      7.41924887	      2.16015603
      0.90400000	     -2.06684023	     -0.20833902	     -1.05824532	     -0.36781812	      1.01650233	      0.34412752	      7.71384401	      3.33633590	      0.86989998	    -14.80028026	      9.71838951	     -7.60337470	      2.02231522	     20.74019323	     -1.36735228	     -4.83365377	    -64.26144872	     -2.76453988	    -11.12692515	      4.52793044	    -10.71766800	      7.17065005	      2.36366670
      0.90816667	     -2.01829833	     -0.04810858	     -1.10803509	     -0.36291520	      1.01707836	      0.34440934	      7.18366605	      3.17292280	      0.91274883	    -14.44145169	      9.81172497	     -7.52849429	      2.01009611	     21.09246884	     -1.24199171	     -4.94236969	    -63.54363593	     -2.36904839	    -11.14130701	      4.42295538	    -10.81039406	      6.93273602	      2.57005272
      0.91233333	     -1.95915268	      0.09771389	     -1.15302674	     -0.35801843	      1.01760999	      0.34468157	      6.64225245	      3.02324521	      0.94774804	    -14.08090368	      9.89951538	     -7.46220879	      1.99742617	     21.42218906	     -1.12814204	     -5.03630715	    -62.78597100	     -1.97716733	    -11.12790880	      4.32547852	    -10.91351337	      6.71245829	      2.75041755
      0.91650000	     -1.95196263	      0.24039719	     -1.19360916	     -0.35312897	      1.01803124	      0.34492039	      6.16481046	      2.87449260	      0.97762072	    -13.73328803	      9.94476100	     -7.40613501	      1.98954943	     21.79576514	     -1.00829954	     -5.11247282	    -61.98260874	     -1.59212801	    -11.11721865	      4.27827447	    -10.94969803	      6.50393034	      2.85458691
      0.92066667	     -1.85208919	      0.37004871	     -1.23510376	     -0.34821834	      1.01852965	      0.34515691	      5.57418256	      2.73737129	      1.00982721	    -13.36357871	     10.07587025	     -7.33455038	      1.97442704	     22.04724401	     -0.90176647	     -5.18543577	    -61.12441171	     -1.23879247	    -11.04537440	      4.17438678	    -11.10592434	      6.30378345	      3.09789148
      0.92483333	     -1.81378166	      0.50594865	     -1.27209645	     -0.34331504	      1.01888476	      0.34536668	      5.06547542	      2.59078154	      1.02576646	    -13.02396626	     10.17419087	     -7.26500769	      1.95897089	     22.35379124	     -0.77866509	     -5.23886325	    -60.22366542	     -0.90123563	    -10.98602723	      4.07948390	    -11.18130693	      6.10113161	      3.25730503
